<?xml version="1.0" encoding="utf-8"?><svg id="Icon" xmlns="http://www.w3.org/2000/svg" width="2560" height="1280" viewBox="0 0 2560 1280"><defs><style>.cls-1{fill:#cdc6fc;}.cls-1,.cls-2,.cls-3,.cls-4,.cls-5,.cls-6,.cls-7{stroke-miterlimit:10;}.cls-1,.cls-3,.cls-5,.cls-6,.cls-7{stroke:#1e2735;stroke-width:20px;}.cls-2{fill:#9538e6;}.cls-2,.cls-4{stroke:#111725;stroke-width:16px;}.cls-3{fill:#6e6aa3;}.cls-4{fill:#cdc6fd;}.cls-5,.cls-8{fill:#a9a3e0;}.cls-9{fill:none;stroke:#111726;stroke-linecap:round;stroke-linejoin:round;stroke-width:50px;}.cls-6{fill:#a9a3e2;}.cls-7{fill:#6e6aa2;}.cls-10{fill:#9338e6;}</style></defs><g id="Arm"><polygon class="cls-3" points="1130.57 938.97 587.76 713.92 320.11 302.53 563.95 267.87 722.26 586.1 1281.77 758 1130.57 938.97" /><circle class="cls-5" cx="459.22" cy="238.37" r="171.78" /><circle class="cls-7" cx="429.5" cy="188.83" r="68.29" /></g><g id="Cord"><g id="Wire"><path class="cls-9" d="m421.57,182.8c-52.18,27.9-74.32,81.09-67.3,129.91,16.87,117.23,281.49,166.5,330.61,175.65,226.26,42.13,324.52,12.87,430.65,53.27,79.83,30.39,136.29,86.52,139.04,210.12,1.63,73.28-36.72,146.62-98.37,187.82-86.31,57.69-147.06,98.78-235.71,20.9" /></g><g id="Plug"><path class="cls-4" d="m767.67,986.73l-50.43,35.64c-27.59,19.5-41.92,33.99-29,51.35,11.93,18.06,30.35,9.4,57.94-10.1l50.43-35.64" /><path class="cls-4" d="m858.77,1116.56l-50.43,35.64c-27.59,19.5-41.92,33.99-29,51.35,11.93,18.06,30.35,9.4,57.94-10.1l50.43-35.64" /><path class="cls-2" d="m730.92,973.36c1.57-1.27,26.54-19.09,29.35-21.12,33.58-24.21,93.57-46.78,144.55-24.89,28.35,12.17,45.1,32.05,58.12,49.53,12.35,18.75,25.02,40.72,26.88,71.61,3.35,55.55-38.03,104.62-72.06,128.2-2.85,1.98-27.99,19.56-29.7,20.62l-157.13-223.95Z" /></g></g><g id="Logo" /><g id="Fist"><polygon class="cls-1" points="1161.99 658.02 1348.04 692.81 1218.4 1013.47 1042.14 928.95 1161.99 658.02" /><polygon class="cls-6" points="1094.62 624.62 1174.02 636.38 1114.13 766.87 1054.56 758.05 1094.62 624.62" /></g></svg>