<?xml version="1.0" encoding="UTF-8"?><svg xmlns="http://www.w3.org/2000/svg" width="1280" height="1280" viewBox="0 0 1280 1280"><defs><style>.cls-1{fill:#1e2836;}.cls-2{fill:#cdc6fc;}.cls-2,.cls-3,.cls-4,.cls-5,.cls-6,.cls-7,.cls-8{stroke-miterlimit:10;}.cls-2,.cls-4,.cls-6,.cls-7,.cls-8{stroke:#1e2735;stroke-width:20px;}.cls-3{fill:#9538e6;}.cls-3,.cls-5{stroke:#111725;stroke-width:16px;}.cls-4{fill:#6e6aa3;}.cls-5{fill:#cdc6fd;}.cls-6{fill:#a9a3e0;}.cls-9{fill:none;stroke:#111726;stroke-linecap:round;stroke-linejoin:round;stroke-width:50px;}.cls-7{fill:#a9a3e2;}.cls-8{fill:#6e6aa2;}</style></defs><g id="Background"><rect id="Rounded" class="cls-1" width="1280" height="1280" rx="198.73" ry="198.73"/></g><g id="Arm"><polygon class="cls-4" points="948.81 938.97 406 713.92 138.34 302.53 382.19 267.87 540.5 586.1 1100 758 948.81 938.97"/><circle class="cls-6" cx="277.45" cy="238.37" r="171.78"/><circle class="cls-8" cx="247.74" cy="188.83" r="68.29"/></g><g id="Cord"><g id="Wire"><path class="cls-9" d="m239.81,182.8c-52.18,27.9-74.32,81.09-67.3,129.91,16.87,117.23,281.49,166.5,330.61,175.65,226.26,42.13,324.52,12.87,430.65,53.27,79.83,30.39,136.29,86.52,139.04,210.12,1.63,73.28-36.72,146.62-98.37,187.82-86.31,57.69-147.06,98.78-235.71,20.9"/></g><g id="Plug"><path class="cls-5" d="m585.91,986.73l-50.43,35.64c-27.59,19.5-41.92,33.99-29,51.35,11.93,18.06,30.35,9.4,57.94-10.1l50.43-35.64"/><path class="cls-5" d="m677.01,1116.56l-50.43,35.64c-27.59,19.5-41.92,33.99-29,51.35,11.93,18.06,30.35,9.4,57.94-10.1l50.43-35.64"/><path class="cls-3" d="m549.16,973.36c1.57-1.27,26.54-19.09,29.35-21.12,33.58-24.21,93.57-46.78,144.55-24.89,28.35,12.17,45.1,32.05,58.12,49.53,12.35,18.75,25.02,40.72,26.88,71.61,3.35,55.55-38.03,104.62-72.06,128.2-2.85,1.98-27.99,19.56-29.7,20.62l-157.13-223.95Z"/></g></g><g id="Fist"><polygon class="cls-2" points="980.22 658.02 1166.28 692.81 1036.64 1013.47 860.38 928.95 980.22 658.02"/><polygon class="cls-7" points="912.86 624.62 992.26 636.38 932.37 766.87 872.8 758.05 912.86 624.62"/></g></svg>