<?xml version="1.0" encoding="UTF-8" standalone="no"?>
<!-- Created with Inkscape (http://www.inkscape.org/) -->
<svg width="512" height="512" viewBox="0 0 512 512" version="1.1" id="svg5" xml:space="preserve" xmlns="http://www.w3.org/2000/svg" xmlns:svg="http://www.w3.org/2000/svg"><defs id="defs2"/><g id="layer1"><rect style="" id="rect490" width="483.14999" height="483.14999" x="14.425003" y="14.425003" ry="81.604424"/><g id="g3506" transform="matrix(1.2092552,0,0,1.2092552,-56.17313,-38.39383)"><path class="a" d="m 357.7554,195.82508 c 0.44925,0.35862 2.53216,1.90451 4.58971,3.43416 2.04137,1.55503 3.80385,2.93177 3.89114,3.13042 0.0781,0.15708 1.07096,1.00606 2.19761,1.86919 1.12666,0.86309 2.66308,2.20245 3.44605,2.9887 0.78298,0.78624 2.15316,2.16217 3.06288,3.02945 0.89351,0.89262 2.42911,2.62428 3.42113,3.86557 0.96668,1.22509 2.15859,2.87986 2.65773,3.66321 0.48999,0.74178 1.35026,2.07742 1.88389,2.91852 0.53362,0.8411 1.43256,2.45143 2.02105,3.54188 0.58849,1.09045 1.60631,3.24102 2.29537,4.78861 0.68907,1.54757 1.67157,4.03268 2.19234,5.50838 0.50456,1.50103 1.16248,3.60007 1.46713,4.68763 0.32085,1.0622 0.98835,4.09587 1.56443,6.71399 0.53451,2.62724 1.19125,6.40397 1.42942,8.37752 0.23819,1.97357 0.46686,5.19094 0.57123,7.15037 0.079,1.94323 0.10614,5.53172 0.078,7.9778 -0.0282,2.44607 -0.27656,6.46552 -0.56323,8.9249 -0.28668,2.45939 -0.67349,5.35471 -0.85341,6.41817 -0.18029,1.06339 -0.58134,3.19953 -0.88462,4.79119 -0.31243,1.55011 -0.63615,2.95018 -0.70803,3.11849 -0.081,0.12678 -0.43425,1.2937 -0.7438,2.55997 -0.33493,1.25007 -0.93204,3.18958 -1.3613,4.3079 -0.41305,1.09298 -1.04674,2.86625 -1.40202,3.92473 -0.35529,1.05848 -1.16933,3.00216 -1.85292,4.35072 -0.66736,1.3232 -2.32832,4.36818 -3.70173,6.7399 -1.37339,2.37174 -3.04268,4.98285 -3.72753,5.83064 -0.68483,0.84779 -1.77692,2.2209 -2.46177,3.06869 -0.65948,0.864 -2.01712,2.31731 -3.00907,3.25446 -0.99194,0.93716 -2.16425,2.04469 -2.57357,2.46153 -0.43468,0.40063 -1.89789,1.57219 -3.24764,2.56628 -1.34977,0.9941 -3.60046,2.44785 -4.99595,3.23416 -1.42083,0.77011 -2.93182,1.6254 -3.41015,1.92672 -0.46211,0.27596 -2.49008,1.15787 -4.49479,1.94752 -1.97936,0.80587 -4.67435,1.72562 -5.99502,2.05978 -1.29534,0.35038 -3.57186,0.89485 -5.06791,1.22402 -1.49606,0.32918 -4.02398,0.82007 -5.60523,1.05907 -1.62282,0.24816 -3.17166,0.43645 -3.48085,0.41735 -0.33455,-0.0353 -0.67614,-0.004 -0.8008,0.0237 -0.14089,0.0528 -1.40799,0.13553 -2.82508,0.22948 -1.45867,0.10311 -4.26255,0.13187 -6.31632,0.10452 -2.03758,-0.0527 -5.86544,-0.32147 -8.54176,-0.60398 -2.66011,-0.30785 -6.04914,-0.76032 -7.54854,-1.04037 -1.49939,-0.28007 -4.41717,-0.9669 -6.5229,-1.52744 -2.10575,-0.56055 -4.66571,-1.30436 -5.70798,-1.68498 -1.05849,-0.35528 -2.29442,-0.82401 -2.74865,-1.00727 -0.49579,-0.17408 -1.88382,-0.74008 -3.1289,-1.25036 -1.2613,-0.48494 -3.72111,-1.66468 -5.49149,-2.58222 -1.87178,-0.98235 -5.12372,-2.9899 -7.79676,-4.84161 -4.11096,-2.84241 -4.8827,-3.47862 -7.55827,-6.33188 -1.93415,-2.05788 -3.28523,-3.74298 -3.82302,-4.80103 -0.44345,-0.9263 -0.87693,-2.20334 -0.92183,-2.80343 -0.0541,-0.64164 0.17032,-1.99809 0.52617,-3.05648 0.55972,-1.71343 0.74505,-2.05919 1.78772,-2.96394 0.64037,-0.55481 1.57871,-1.24054 2.13308,-1.49322 0.51282,-0.24354 1.40879,-0.52784 1.95819,-0.60515 0.54937,-0.0773 1.65938,-0.0819 2.48762,0.019 1.00361,0.10599 1.93743,0.48867 2.8754,1.08831 0.76052,0.48619 1.6266,1.25415 1.96031,1.68177 0.30838,0.41141 1.39971,1.60907 2.41292,2.64962 1.41383,1.47525 2.81934,2.51664 6.23462,4.77145 2.97515,1.93773 5.48983,3.3668 7.73771,4.37534 1.81901,0.84148 4.58594,1.93186 6.11485,2.44504 1.52892,0.51319 4.13045,1.24784 5.72419,1.65964 1.60995,0.38643 4.14954,0.93865 5.64895,1.2187 1.49941,0.28007 4.30248,0.64358 6.22659,0.87376 1.94032,0.20483 4.87305,0.36555 6.53452,0.3921 1.66146,0.0266 4.17236,-0.0467 5.61482,-0.12443 1.40091,-0.0686 3.82454,-0.34048 5.34802,-0.54499 1.51434,-0.24607 4.04227,-0.73695 5.59611,-1.10062 1.52847,-0.37988 3.35491,-0.89069 4.04309,-1.12926 0.68817,-0.23856 2.17094,-0.82621 3.31416,-1.27383 1.1686,-0.4314 3.33536,-1.47456 4.81396,-2.27917 1.49479,-0.82995 3.63912,-2.17315 4.78317,-3.01306 1.1187,-0.85611 3.26882,-2.767 4.71664,-4.30551 2.16923,-2.22007 3.15493,-3.48263 5.11594,-6.55004 1.34514,-2.1041 2.73475,-4.50117 3.06885,-5.35893 0.35944,-0.84156 1.1573,-2.75987 1.77189,-4.22396 0.61458,-1.4641 1.42447,-3.6247 1.76147,-4.76629 0.37855,-1.15074 0.86431,-2.80434 1.13148,-3.66915 0.25099,-0.83947 0.81443,-3.22905 1.2341,-5.282 0.40345,-2.0276 0.93914,-5.4349 1.17418,-7.53442 0.23515,-2.09948 0.48189,-5.33433 0.56412,-7.13875 0.0569,-1.82064 0.0514,-4.71678 0.002,-6.42688 -0.0495,-1.71008 -0.31476,-5.09369 -0.56127,-7.50111 -0.27187,-2.42363 -0.99468,-6.59971 -1.62144,-9.25023 -0.63593,-2.69207 -1.38239,-5.49054 -1.68079,-6.25269 -0.2822,-0.78751 -0.54612,-1.4919 -0.57354,-1.61657 -0.0274,-0.12467 -0.37157,-1.09462 -0.79174,-2.11318 -0.40398,-1.04391 -1.33659,-3.10429 -2.09048,-4.55048 -0.7377,-1.47153 -1.62043,-3.1072 -1.95623,-3.64328 -0.33581,-0.53609 -1.11795,-1.71462 -1.71141,-2.62971 -0.6097,-0.88972 -1.92836,-2.62554 -2.91124,-3.82527 -1.00822,-1.21594 -2.98601,-3.37313 -4.44847,-4.77232 -1.44623,-1.42455 -4.08604,-3.71928 -5.86474,-5.07067 -2.04136,-1.55502 -5.20313,-3.64776 -8.55438,-5.61166 -2.91324,-1.75529 -6.09411,-3.53884 -7.08776,-3.99553 -0.99366,-0.45668 -3.17462,-1.45815 -4.84152,-2.2024 -1.67604,-0.78579 -3.61972,-1.59984 -4.3183,-1.9036 -0.71479,-0.27841 -2.2782,-0.84938 -3.46343,-1.28569 -1.18524,-0.43631 -2.68175,-1.0002 -3.30429,-1.25534 -0.62253,-0.25515 -2.10075,-0.73591 -3.24234,-1.07292 -1.18316,-0.32785 -2.84589,-0.85516 -3.70364,-1.18925 -0.87398,-0.30875 -2.14232,-0.72678 -2.81349,-0.90588 -0.67115,-0.17914 -3.07901,-0.82564 -5.32772,-1.44188 -2.24869,-0.61621 -5.1087,-1.33756 -6.28271,-1.62386 -1.21556,-0.27711 -3.38613,-0.7363 -4.86932,-1.04169 -1.48319,-0.30548 -4.60876,-0.94654 -6.95469,-1.41066 -2.34594,-0.46409 -5.0264,-0.9636 -5.92156,-1.0716 -0.9044,-0.14893 -3.15589,-0.48202 -5.0152,-0.81346 -1.8755,-0.30624 -4.80531,-0.75084 -6.52871,-0.95978 -1.7072,-0.23432 -4.99482,-0.62197 -7.27883,-0.90364 -2.28402,-0.28169 -4.87015,-0.6494 -5.73289,-0.80813 -0.88807,-0.17493 -2.33679,-0.42253 -3.21579,-0.55553 -0.90442,-0.14894 -2.07623,-0.32744 -2.6115,-0.38387 -0.54451,-0.0975 -1.71634,-0.27587 -2.579,-0.43506 -0.9044,-0.14894 -2.52132,-0.46906 -3.64462,-0.72296 -1.12332,-0.25382 -3.6305,-0.85681 -5.60033,-1.29476 -1.96985,-0.43792 -4.327,-1.0521 -5.23338,-1.31014 -0.89017,-0.28339 -2.77897,-0.84811 -4.18113,-1.28025 -1.40217,-0.43217 -3.29098,-0.99686 -4.19736,-1.2549 -0.92258,-0.23272 -2.0571,-0.63661 -2.51134,-0.81985 -0.46338,-0.22482 -2.1444,-0.83525 -3.74936,-1.39706 -1.60497,-0.5618 -4.47123,-1.60854 -6.37127,-2.32328 -1.90002,-0.71473 -5.25708,-2.11095 -7.46339,-3.12863 -2.22251,-0.99259 -5.54924,-2.548 -7.42809,-3.46343 -1.87884,-0.91547 -4.66822,-2.3059 -6.21959,-3.11913 -1.55157,-0.81328 -5.11768,-2.66455 -7.9,-4.12188 -3.86116,-2.00421 -8.88557,-5.03775 -20.76376,-12.48864 -10.42616,-6.59402 -17.0356,-10.89086 -19.77056,-12.925 -2.28572,-1.67553 -5.08967,-3.82521 -6.23462,-4.77145 -1.18649,-0.93708 -3.38909,-2.63088 -4.90515,-3.77867 -1.51604,-1.14776 -3.86368,-3.00572 -5.18817,-4.17386 -1.34067,-1.14278 -3.25029,-2.79216 -4.26848,-3.65735 -1.01818,-0.8652 -2.16022,-2.09526 -2.55587,-2.70531 -0.39565,-0.61004 -0.87566,-1.70259 -1.05647,-2.42527 -0.15544,-0.70647 -0.24525,-1.90664 -0.16755,-2.64263 0.0989,-0.9367 0.46538,-1.84517 1.19468,-2.98595 0.66448,-1.03936 1.49018,-1.93994 2.20662,-2.44613 0.62626,-0.421 1.76034,-0.91017 2.48302,-1.09097 0.73183,-0.13925 1.97357,-0.23819 2.76732,-0.19499 1.11207,0.10389 1.85223,0.39849 3.20496,1.29898 0.96332,0.61586 2.37797,1.69879 3.1011,2.41107 0.73932,0.68693 2.69964,2.3687 4.39522,3.73839 1.67025,1.35346 3.98547,3.26213 5.17197,4.19922 1.14494,0.94622 5.91918,4.42692 10.58994,7.73434 6.49806,4.58276 11.0886,7.62462 19.61139,12.89467 6.1236,3.77199 13.84929,8.38962 17.19847,10.24505 3.32383,1.83924 7.76807,4.21619 9.84971,5.26129 2.08164,1.04511 4.64287,2.28967 5.72879,2.76963 1.06057,0.46375 3.01338,1.31936 4.35071,1.85291 1.33734,0.53355 3.39157,1.45399 4.58802,2.04033 1.19645,0.58635 2.98802,1.30315 3.97045,1.60982 0.98243,0.30665 2.47893,0.87055 3.32049,1.23 0.82534,0.38478 2.32184,0.94867 3.28807,1.28069 0.96621,0.33201 3.217,1.0567 5.0389,1.61435 1.78034,0.56679 4.41635,1.3592 5.81852,1.79137 1.41836,0.40679 4.72347,1.26984 7.38068,1.86154 2.64098,0.61704 5.75035,1.28352 6.90607,1.4867 1.1557,0.2033 2.51213,0.4277 3.05647,0.52617 0.51907,0.0818 3.31505,0.5123 6.19418,0.92446 2.87912,0.41213 6.56112,0.90908 8.2014,1.13636 1.61493,0.21102 3.9912,0.516 5.2716,0.69175 1.23883,0.18487 4.67149,0.7367 7.61046,1.22283 2.92275,0.51145 6.11328,1.05035 7.06813,1.23326 0.97125,0.1563 2.83963,0.52977 4.1221,0.81398 1.28248,0.28418 3.33543,0.70387 4.5672,0.95567 1.22264,0.21022 4.50944,0.99018 7.30255,1.70446 2.7931,0.71429 6.42567,1.67955 8.09546,2.13996 1.686,0.43505 4.11215,1.16472 5.40586,1.59896 1.3099,0.40889 3.89729,1.27736 5.7537,1.89277 1.85639,0.61541 4.9163,1.75024 6.78392,2.51567 1.86761,0.76544 4.28173,1.73739 5.40005,2.16665 1.07677,0.43839 3.08029,1.32642 4.42884,2.00999 1.32321,0.66738 3.58231,1.82593 4.99779,2.51656 1.41547,0.69064 3.96964,2.00212 5.64775,2.89638 1.67813,0.89427 3.43438,1.94562 3.88364,2.30424 z" id="path312" style=""/><path class="a" d="m 364.18351,314.63986 c 0.13798,0.23107 0.39154,2.57157 0.49221,5.20715 0.11685,2.61022 0.18426,5.6888 0.1149,6.85864 -0.0278,1.16071 0.0168,3.04617 0.1136,4.17943 0.0969,1.13328 0.002,2.28692 -0.17613,2.56577 -0.17827,0.27886 -1.33147,1.07722 -2.57901,1.74384 -1.24752,0.66661 -2.643,1.45293 -3.12132,1.75424 -0.46212,0.27596 -2.49009,1.15787 -4.4948,1.94752 -1.97936,0.80587 -4.67434,1.72563 -5.99502,2.05978 -1.29534,0.35038 -3.57185,0.89485 -5.06791,1.22403 -1.49605,0.32918 -4.02398,0.82006 -5.60523,1.05907 -1.62282,0.24815 -3.17166,0.43645 -3.48085,0.41734 -0.33455,-0.0353 -0.67614,-0.004 -0.8008,0.0237 -0.14089,0.0528 -1.40798,0.13552 -2.82508,0.22947 -1.45867,0.10311 -4.26255,0.13188 -6.31632,0.10452 -2.03758,-0.0527 -5.86544,-0.32147 -8.54176,-0.60398 -2.66011,-0.30785 -6.04913,-0.76031 -7.54853,-1.04036 -1.4994,-0.28007 -4.41717,-0.96691 -6.52291,-1.52745 -2.10575,-0.56054 -4.66571,-1.30435 -5.70798,-1.68498 -1.05849,-0.35528 -2.29442,-0.82401 -2.74864,-1.00726 -0.4958,-0.17408 -1.88382,-0.74008 -3.12891,-1.25037 -1.2613,-0.48494 -3.72111,-1.66468 -5.49149,-2.58222 -1.87178,-0.98234 -5.12371,-2.98989 -7.79676,-4.84161 -4.11095,-2.8424 -4.8827,-3.47862 -7.55827,-6.33188 -1.93415,-2.05788 -3.28523,-3.74298 -3.82302,-4.80102 -0.44345,-0.92631 -0.87693,-2.20335 -0.92183,-2.80344 -0.0541,-0.64164 0.17032,-1.99809 0.52617,-3.05647 0.55972,-1.71344 0.74505,-2.05919 1.78772,-2.96395 0.65657,-0.58016 1.57872,-1.24053 2.13308,-1.49322 0.51282,-0.24355 1.40879,-0.52783 1.95819,-0.60514 0.54938,-0.0773 1.65938,-0.0819 2.48762,0.019 1.00361,0.10599 1.93743,0.48867 2.8754,1.08831 0.76052,0.4862 1.6266,1.25416 1.96031,1.68177 0.30838,0.41141 1.39971,1.60907 2.41292,2.64963 1.41384,1.47525 2.81934,2.51663 6.23462,4.77145 2.97515,1.93772 5.48984,3.3668 7.73771,4.37533 1.81901,0.84148 4.58594,1.93186 6.11485,2.44504 1.52892,0.51319 4.13045,1.24785 5.7242,1.65964 1.60994,0.38643 4.14953,0.93866 5.64894,1.2187 1.49941,0.28007 4.30248,0.64359 6.22659,0.87376 1.94033,0.20483 4.87304,0.36555 6.53451,0.3921 1.66146,0.0266 4.17237,-0.0467 5.61483,-0.12443 1.40091,-0.0686 3.82454,-0.34048 5.34802,-0.54499 1.51435,-0.24606 4.04228,-0.73695 5.59611,-1.10062 1.52847,-0.37988 3.3549,-0.89068 4.04309,-1.12925 0.68817,-0.23856 2.17094,-0.82622 3.31416,-1.27383 1.1686,-0.43141 3.33536,-1.47456 4.81396,-2.27918 1.4948,-0.82995 3.63912,-2.17315 4.75783,-3.02926 1.14404,-0.83991 2.82708,-2.29947 3.73591,-3.21834 1.35058,-1.3864 1.68801,-1.63491 1.94568,-1.25593 z" id="path314" style=""/><path class="c" d="m 215.55595,241.07487 35.10467,12.49394 8.79,-20.28884 30.51618,10.50376 c 32.56167,11.22245 51.30258,44.1158 44.28166,77.2303 l -8.56886,22.83185 c -17.24829,31.34543 -56.05692,45.7743 -90.1665,31.73241 l -31.95355,-13.15733 9.89565,-22.77658 -36.21034,-14.48414 c -5.85999,-2.32187 -8.34772,-9.12169 -5.58358,-15.09224 2.70887,-5.97057 9.61923,-8.95585 15.47923,-6.63396 l 35.93392,13.93131 18.57507,-43.01014 -35.38109,-12.9915 c -5.80471,-2.10076 -8.34772,-8.34773 -5.74943,-13.93131 2.5983,-5.52829 9.23226,-8.40301 15.03697,-6.35753 z" id="path120" style=""/><path class="d" d="m 211.18859,243.94958 c 0.88453,0 9.67453,2.76415 19.51488,6.24697 9.84037,3.42755 17.96697,6.24698 18.07754,6.30226 0.11056,0.0552 -0.44227,2.98528 -1.21623,6.52339 -0.77396,3.53811 -1.76906,6.96565 -2.2666,7.57377 -0.6634,0.9398 -4.25679,-0.16586 -19.90186,-5.86 -13.21263,-4.80962 -19.57016,-7.51848 -20.56527,-8.78999 -0.77396,-0.99509 -1.43735,-2.81943 -1.43735,-4.03566 0.0552,-1.2715 0.44226,-2.98527 0.88452,-3.8698 0.44227,-0.88453 1.82434,-2.15604 3.04057,-2.81943 1.21622,-0.66339 2.98528,-1.21623 3.8698,-1.27151 z m -28.8577,62.63558 c 1.71377,-0.0552 10.44848,2.87472 21.94733,7.29736 10.50376,4.03566 19.18319,7.51848 19.29376,7.73961 0.11057,0.22113 -1.82434,3.5934 -8.79,14.5947 l -18.85148,-7.46319 c -12.82565,-5.08604 -19.34903,-8.07131 -20.34413,-9.34282 -0.82924,-1.05038 -1.43735,-2.87471 -1.43735,-4.09094 0,-1.27151 0.44225,-3.09585 0.9398,-4.09094 0.49755,-0.99509 1.71378,-2.43245 2.65358,-3.20642 0.93981,-0.77395 3.04057,-1.43736 4.58849,-1.43736 z" id="path122" style=""/><path class="e" d="m 250.21267,250.85425 4.69905,2.26661 -10.94603,25.31959 -4.69905,-2.48773 z" id="path124" style=""/><path class="e" d="m 221.46554,317.35494 4.69904,2.2666 -10.94603,25.31959 -4.69904,-2.48773 z" id="path126" style=""/></g></g><style id="style112">.a{fill:#2c2f33}.b{fill:#95a7b3}.c{fill:#7289da;stroke:#2c2f33;stroke-width:17}.d{fill:#99aab5}.e{fill:#2c2f33;stroke:#2c2f33;stroke-width:3.5}.f{fill:#7289da}</style></svg>